<!-- Generated by IcoMoon.io -->
<svg version="1.1" xmlns="http://www.w3.org/2000/svg" width="768" height="768" viewBox="0 0 768 768">
<title></title>
<g id="icomoon-ignore">
</g>
<path fill="#000" d="M415.313 19.456c-3.212-6.598-8.657-12.288-15.848-15.848-17.279-8.518-38.224-1.431-46.742 15.848l-99.767 202.082-223.097 32.638c-7.262 1.012-14.348 4.433-19.933 10.158-13.474 13.823-13.16 35.921 0.629 49.361l161.38 157.191-38.084 222.085c-1.257 7.226-0.209 15.045 3.526 22.132 8.971 17.070 30.091 23.633 47.161 14.661l199.464-104.898 199.499 104.898c6.493 3.456 14.242 4.853 22.132 3.526 18.99-3.247 31.766-21.294 28.52-40.318l-38.084-222.085 161.38-157.191c5.272-5.096 9.041-12.008 10.193-19.967 2.792-19.060-10.403-36.793-29.497-39.586l-223.062-32.604zM384 113.776l76.553 155.132c5.272 10.647 15.22 17.419 26.251 19.095l171.259 25.029-123.889 120.677c-8.518 8.308-11.903 19.862-10.054 30.893l29.218 170.455-153.106-80.533c-10.507-5.515-22.585-5.167-32.5 0l-153.106 80.533 29.218-170.455c2.025-11.729-2.060-23.075-10.054-30.893l-123.889-120.677 171.293-25.064c11.729-1.711 21.259-9.076 26.251-19.060z"></path>
</svg>
